<?xml version="1.0" encoding="UTF-8" standalone="no"?>
<svg
   id="Calque_1"
   data-name="Calque 1"
   viewBox="0 0 528 528"
   version="1.1"
   sodipodi:docname="embedstiny.svg"
   inkscape:version="1.3 (0e150ed6c4, 2023-07-21)"
   width="528"
   height="528"
   xmlns:inkscape="http://www.inkscape.org/namespaces/inkscape"
   xmlns:sodipodi="http://sodipodi.sourceforge.net/DTD/sodipodi-0.dtd"
   xmlns="http://www.w3.org/2000/svg"
   xmlns:svg="http://www.w3.org/2000/svg"
   xmlns:rdf="http://www.w3.org/1999/02/22-rdf-syntax-ns#"
   xmlns:cc="http://creativecommons.org/ns#"
   xmlns:dc="http://purl.org/dc/elements/1.1/">
  <sodipodi:namedview
     id="namedview5"
     pagecolor="#505050"
     bordercolor="#eeeeee"
     borderopacity="1"
     inkscape:showpageshadow="0"
     inkscape:pageopacity="0"
     inkscape:pagecheckerboard="0"
     inkscape:deskcolor="#505050"
     inkscape:zoom="2.8284272"
     inkscape:cx="292.03509"
     inkscape:cy="203.46997"
     inkscape:window-width="2560"
     inkscape:window-height="1369"
     inkscape:window-x="-8"
     inkscape:window-y="-8"
     inkscape:window-maximized="1"
     inkscape:current-layer="Calque_1" />
  <defs
     id="defs1">
    <style
       id="style1">.cls-1{fill:#4e4e4e;}.cls-2{fill:#eee;}.cls-3{fill:#131413;}.cls-4{fill:#feef00;}.cls-5{fill:#fefefe;}</style>
  </defs>
  <title
     id="title1">image9628912-2</title>
  <path
     id="path3"
     style="display:inline;mix-blend-mode:normal;fill:#1a1a1a;fill-opacity:1;stroke-width:0.999318"
     class="cls-3"
     inkscape:label="background"
     d="M 0,0 V 528 H 528 V 0 Z m 58.512651,43.954466 c 30.964847,-9.89e-4 61.514639,-0.03996 92.035749,0.124882 1.77926,0.01 3.9282,1.484245 5.25756,2.878135 29.44746,31.17311 58.88214,62.360407 88.30294,93.559837 0.82966,0.88973 1.62955,1.81976 3.15883,3.52011 h -77.57694 v 3.31132 7.14362 62.556 h 97.49831 v 47.01407 H 58.512651 v -109.57007 -7.14362 z m 116.935489,0.298548 h 51.04899 v 0.01758 c 21.43458,0.01579 42.86865,0.03637 64.3032,0.04686 v 0.02727 c 41.07243,0.01399 82.14567,0.02078 123.21802,0.06244 2.70311,0.122114 5.2791,1.170841 7.28602,2.965941 15.10357,14.413411 29.92762,29.11294 44.9812,43.585676 2.31941,2.080979 3.56784,5.085184 3.39897,8.177806 -0.14444,52.333023 -0.17373,104.659503 -0.21671,156.986103 h 0.0586 v 11.30569 h 0.006 c -10e-4,1.40163 -0.004,2.80339 -0.006,4.20501 v 1.26637 h -0.002 c -0.0257,21.53264 -0.0898,43.0679 -0.0898,64.59899 0,30.63927 0.0628,61.28587 0.18937,91.93832 0.1627,2.93143 -1.01921,5.77939 -3.2174,7.75243 -15.16351,14.59137 -30.11781,29.38887 -45.30138,43.95056 -1.73054,1.63765 -3.98833,2.62136 -6.37819,2.77862 -239.66839,0.11775 -82.57123,0.0422 -123.85643,0.0624 -38.60408,0.0189 -77.20884,0.0894 -115.81292,0.0547 10.2312,-11.1815 60.16382,-63.98728 91.452,-97.03895 1.84109,-1.7102 4.25168,-2.69455 6.77647,-2.76691 27.67105,-0.17206 55.34471,-0.0568 83.01608,-0.13855 v -111.1916 h -0.0703 V 260.8682 256.12269 144.22475 c -27.67194,0 -55.34416,-0.13415 -83.01608,-0.1561 -2.52479,-0.0723 -4.93538,-1.05669 -6.77647,-2.76691 -58.58824,-61.89037 -87.13899,-92.305838 -91.452,-97.038966 0.15357,-1.4e-4 0.30718,1.4e-4 0.46073,0 z M 58.512651,264.0683 H 267.1891 v 47.01406 h -97.49831 v 62.55601 7.14362 3.31132 h 77.57694 c -1.52928,1.70036 -2.32917,2.63036 -3.15883,3.5201 -29.4208,31.19944 -58.85548,62.38673 -88.30294,93.55984 -1.32936,1.39388 -3.4783,2.86825 -5.25756,2.87814 -30.52111,0.16481 -61.070902,0.12587 -92.035749,0.12488 v -103.39428 -7.14362 z" />
  <g
     id="g11"
     inkscape:label="letters"
     transform="matrix(1,0,0,0.9895202,-53.480351,-40.622955)"
     style="display:inline">
    <path
       id="path4"
       style="display:inline"
       class="cls-4"
       inkscape:label="D"
       d="m 228.89148,85.311929 v 0.0099 c -0.15364,1.4e-4 -0.30729,-1.4e-4 -0.46093,0 4.31484,4.787801 32.87738,35.554361 91.49023,98.159551 1.84186,1.72997 4.25346,2.72566 6.7793,2.79886 27.68355,0.0222 55.36722,0.15791 83.05078,0.15791 v 113.19011 4.80031 12.17051 h 0.0703 v 112.4756 c -27.68299,0.0827 -55.3681,-0.0339 -83.05078,0.14014 -2.52584,0.0732 -4.93744,1.06891 -6.7793,2.79886 -31.30134,33.43342 -81.25473,86.8489 -91.49023,98.15956 38.6203,0.0352 77.24104,-0.0362 115.86133,-0.0553 41.30254,-0.0205 -115.86085,0.0559 123.9082,-0.0632 2.39086,-0.15908 4.6496,-1.15414 6.38086,-2.81071 15.18994,-14.72988 30.15043,-29.6982 45.32031,-44.4581 2.19911,-1.99582 3.38152,-4.87667 3.21875,-7.84195 -0.12666,-31.00649 -0.18945,-62.00686 -0.18945,-93.00001 0,-21.77977 0.0641,-43.56363 0.0898,-65.34496 h 0.002 v -1.281 c 0.002,-1.41782 0.005,-2.83576 0.006,-4.25356 h -0.006 v -11.43626 h -0.0586 c 0.043,-52.93096 0.0723,-105.86147 0.2168,-158.79894 0.16895,-3.12834 -1.08001,-6.16723 -3.40039,-8.27224 -15.05989,-14.6399 -29.89007,-29.50911 -45,-44.088997 -2.00776,-1.815827 -4.5848,-2.876662 -7.28906,-3.000192 -41.0896,-0.0421 -82.17983,-0.04896 -123.26953,-0.06316 v -0.02763 c -21.44355,-0.0106 -42.8865,-0.03137 -64.33008,-0.04737 v -0.01776 z" />
    <path
       id="path5"
       style="display:inline"
       class="cls-5"
       inkscape:label="E"
       d="m 111.90711,85.009936 v 104.588254 7.22612 110.83536 h 208.76367 v -47.55698 h -97.53906 v -63.27838 -7.22612 -3.34956 h 77.60937 c -1.52993,-1.71999 -2.33015,-2.66075 -3.16015,-3.56075 -29.43313,-31.55975 -58.88006,-63.10713 -88.33985,-94.64025 -1.32993,-1.409988 -3.47976,-2.90137 -5.25976,-2.91137 -30.5339,-0.16672 -61.0964,-0.127324 -92.07422,-0.126324 z m 0,222.655654 v 110.83536 7.22612 104.58825 c 30.97782,10e-4 61.54032,0.0404 92.07422,-0.12632 1.78,-0.01 3.92983,-1.50139 5.25976,-2.91137 29.45979,-31.53312 58.90672,-63.0805 88.33985,-94.64025 0.83,-0.9 1.63022,-1.84077 3.16015,-3.56076 h -77.60937 v -3.34955 -7.22612 -63.27838 h 97.53906 v -47.55698 z" />
  </g>
  <metadata
     id="metadata20">
    <rdf:RDF>
      <cc:Work
         rdf:about="">
        <dc:title>image9628912-2</dc:title>
      </cc:Work>
    </rdf:RDF>
  </metadata>
</svg>
